<svg width="83" height="89" viewBox="0 0 83 89" fill="none" xmlns="http://www.w3.org/2000/svg">
<g clip-path="url(#clip0_38202_51)">
<path d="M44.3006 45.6075C44.3204 46.1091 44.4594 46.5836 44.7176 47.0106C44.9393 47.3834 45.5052 47.0275 45.2835 46.6581C45.0882 46.3294 44.979 45.9803 44.9658 45.5973C44.9459 45.1601 44.284 45.1737 44.3006 45.6075Z" fill="#46A358"/>
<path d="M52.8093 45.5634C52.7762 45.7532 52.7398 45.9396 52.7067 46.1294C52.6736 46.309 52.7663 46.4954 52.945 46.5428C53.1105 46.5869 53.3157 46.4785 53.3488 46.2988C53.3819 46.109 53.4183 45.9226 53.4514 45.7328C53.4845 45.5532 53.3918 45.3668 53.2131 45.3194C53.0476 45.2753 52.8424 45.3838 52.8093 45.5634Z" fill="#46A358"/>
<path d="M57.3401 46.2378C57.767 46.2277 57.7537 45.5499 57.3268 45.56C56.8999 45.5702 56.9131 46.248 57.3401 46.2378Z" fill="#46A358"/>
<path d="M32.4823 47.4376C32.9092 47.4274 32.896 46.7496 32.469 46.7598C32.0421 46.7699 32.0554 47.4478 32.4823 47.4376Z" fill="#46A358"/>
<path d="M44.5885 4.54481C42.0335 12.2619 40.6402 20.3449 40.488 28.4958C40.4119 32.5932 40.6469 36.6941 41.1929 40.7543C41.4444 42.6251 41.7622 44.4891 42.1461 46.3362C42.4472 47.7799 42.6028 49.4304 43.6486 50.5319C44.0954 51.003 44.7804 50.2675 44.337 49.7998C43.2084 48.6103 43.0926 46.0955 42.8013 44.5399C42.434 42.5742 42.1428 40.5916 41.9276 38.5988C41.5206 34.8301 41.3849 31.0342 41.5139 27.2452C41.7754 19.5993 43.1555 12.0382 45.5516 4.79561C45.7567 4.1754 44.7904 3.92799 44.5885 4.54481Z" fill="#46A358"/>
<path d="M48.4408 4.68372C49.7778 12.394 49.8109 20.2737 50.079 28.0789C50.2047 31.7459 50.4199 35.4231 50.347 39.0935C50.2709 42.9029 49.5461 46.4852 48.5698 50.1455C48.401 50.7793 49.3641 51.0267 49.5329 50.3963C50.4496 46.9699 51.1777 43.5875 51.3167 40.0222C51.4723 36.0399 51.2108 32.0374 51.0751 28.0619C50.8038 20.1619 50.7475 12.2008 49.3939 4.39564C49.2814 3.75171 48.3282 4.04318 48.4408 4.68372Z" fill="#46A358"/>
<path d="M55.629 17.9319C56.0824 28.4822 56.4928 39.1614 53.9776 49.4948C53.8221 50.132 54.7851 50.3794 54.9407 49.7456C57.4757 39.324 57.0819 28.55 56.6219 17.9115C56.5921 17.2574 55.5993 17.2744 55.629 17.9319Z" fill="#46A358"/>
<path d="M52.8226 18.0877C51.416 19.7721 50.4761 21.731 50.0624 23.9102C49.94 24.5508 50.903 24.8049 51.0255 24.161C51.4061 22.1479 52.2368 20.3516 53.5374 18.7926C53.9511 18.2944 53.2396 17.5895 52.8226 18.0877Z" fill="#46A358"/>
<path d="M62.6055 24.5678C62.5823 32.2069 61.5829 39.7748 59.6236 47.1461C59.4548 47.7799 60.4179 48.0273 60.5867 47.3969C62.5658 39.9408 63.5752 32.2746 63.5984 24.5474C63.5984 23.8933 62.6055 23.9137 62.6055 24.5678Z" fill="#46A358"/>
<path d="M60.7191 22.2937C58.1509 25.3405 56.89 29.0923 55.9832 32.9525C55.8342 33.5897 56.7973 33.8405 56.9462 33.2033C57.8133 29.5261 58.9849 25.9099 61.4372 22.9987C61.8509 22.5038 61.1361 21.7955 60.7191 22.2937Z" fill="#46A358"/>
<path d="M36.7549 10.791C38.5222 15.0545 39.8062 19.474 40.6005 24.0323C40.7131 24.6763 41.6629 24.3814 41.5537 23.7409C40.7594 19.1825 39.472 14.7631 37.708 10.4995C37.4598 9.90645 36.5067 10.1877 36.7549 10.791Z" fill="#46A358"/>
<path d="M34.9148 11.1604C34.3952 17.6302 33.8855 24.1814 34.9379 30.6275C36.04 37.3516 38.7472 43.9129 40.8289 50.3692C41.0275 50.9894 41.9806 50.7013 41.782 50.0777C39.7665 43.818 37.1619 37.4532 35.997 30.9597C34.8254 24.422 35.3781 17.7149 35.9076 11.14C35.9606 10.4893 34.9677 10.513 34.9148 11.1604Z" fill="#46A358"/>
<path d="M28.5969 26.791C31.9097 29.9497 34.5938 33.6438 36.6059 37.7955C36.8906 38.3818 37.7345 37.8464 37.4532 37.2634C35.4046 33.0372 32.6577 29.2719 29.2853 26.0556C28.8187 25.6116 28.1303 26.3437 28.5969 26.791Z" fill="#46A358"/>
<path d="M26.3233 28.0959C28.8882 35.9451 32.34 43.4419 36.6258 50.4573C36.9634 51.0132 37.8139 50.4845 37.473 49.9253C33.2302 42.9809 29.8148 35.5723 27.2764 27.8044C27.0745 27.1876 26.1214 27.4723 26.3233 28.0959Z" fill="#46A358"/>
<path d="M32.0686 48.4407C30.6058 45.7633 28.4612 43.5367 25.7938 42.12C25.251 41.8319 24.7314 41.9065 25.7838 41.798C26.1677 41.7574 26.5649 41.7404 26.9488 41.7472C28.1998 41.7608 29.3316 41.9912 30.4072 42.686C31.6582 43.4926 32.7504 44.6517 33.869 45.6379C34.3522 46.065 35.0405 45.3329 34.5574 44.9059C33.1409 43.6519 31.7376 42.0861 30.0002 41.3066C29.0305 40.8694 27.9813 40.7406 26.9289 40.7372C26.2604 40.7338 24.8704 40.6051 24.3111 41.188C23.219 42.32 25.3106 42.9876 25.9625 43.3841C28.1998 44.733 29.9604 46.6716 31.2214 48.983C31.5325 49.5456 32.3797 49.0135 32.0686 48.4407Z" fill="#46A358"/>
<path d="M62.2812 40.1849C63.2509 37.9718 65.5046 37.277 67.6492 36.8161C67.9636 36.7483 68.0894 36.3212 67.9305 36.0637C66.7656 34.1793 64.6442 33.9861 62.6551 34.1725C62.023 34.2302 62.0363 35.2469 62.675 35.1893C64.2801 35.0402 66.1169 35.03 67.0833 36.5958C67.1759 36.345 67.2719 36.0942 67.3646 35.8434C64.9751 36.3551 62.483 37.2397 61.4141 39.69C61.1526 40.2831 62.0197 40.7813 62.2812 40.1849Z" fill="#46A358"/>
<path d="M28.4314 25.8082C27.9946 26.3979 27.5048 27.1333 26.78 27.3706C26.0651 27.6044 25.3006 27.2689 25.3569 26.3843C25.3999 25.6929 25.9791 25.188 26.5417 24.8999C27.197 24.5644 28.9941 24.4051 28.5175 25.6929C28.2924 26.3064 29.2555 26.547 29.4806 25.9437C29.9406 24.6999 28.8352 23.612 27.6636 23.5883C26.4325 23.5646 24.9995 24.4017 24.5361 25.598C24.1026 26.7063 24.556 28.0924 25.7607 28.4076C27.2334 28.7906 28.3487 27.5942 29.1496 26.5165C29.5302 25.9946 28.8187 25.2862 28.4314 25.8082Z" fill="#46A358"/>
<path d="M36.9965 10.0284C36.3776 10.147 35.4807 10.5605 34.8618 10.2216C34.243 9.87927 34.3555 9.0286 34.7129 8.53717C35.0869 8.02541 35.676 7.83901 36.2717 8.00847C36.7549 8.14742 38.2607 9.44207 37.2116 9.88944C36.6291 10.1368 36.9038 11.1163 37.4962 10.8655C38.7373 10.3368 38.6943 8.86592 37.8967 7.92035C37.0924 6.96462 35.6528 6.60198 34.5772 7.29675C33.6373 7.90679 33.1144 9.23533 33.6241 10.2995C34.3455 11.8111 36.0334 11.2417 37.2811 11.0045C37.9066 10.8825 37.6187 9.90638 36.9965 10.0284Z" fill="#46A358"/>
<path d="M48.7916 3.82639C47.9311 4.05346 46.9283 4.3212 46.0414 4.10091C44.7937 3.79589 44.7473 2.33178 45.6244 1.57262C46.326 0.965964 47.4016 0.898181 48.2521 1.16253C48.7883 1.3286 49.4171 1.68785 49.5627 2.29111C49.7017 2.8571 49.4336 3.4163 48.8776 3.55526C48.2587 3.71116 48.54 4.68723 49.1622 4.53133C50.6416 4.15852 50.9659 2.27078 50.0558 1.15914C49.0299 -0.0914443 46.9713 -0.304959 45.5913 0.386423C44.2939 1.03714 43.503 2.78593 44.3668 4.12124C45.3662 5.67007 47.62 5.18204 49.0729 4.79568C49.6918 4.63639 49.4105 3.66032 48.7916 3.82639Z" fill="#46A358"/>
<path d="M55.8706 13.8208C54.4442 13.5599 52.8821 13.9835 52.2302 15.4307C51.7006 16.6033 52.2004 18.125 53.4315 18.5656C54.6726 19.0096 56.5557 18.4605 57.2441 17.2811C57.9027 16.1458 57.4261 14.7054 56.3869 14.0276C55.8475 13.6751 55.3676 14.5664 55.9037 14.9155C56.5722 15.3493 56.7907 16.3356 56.2446 16.9693C55.7581 17.5353 54.7189 17.7759 54.014 17.6472C53.1072 17.4811 52.7564 16.5084 53.2098 15.7052C53.7062 14.8274 54.7288 14.6444 55.629 14.8071C56.2545 14.9223 56.4994 13.9361 55.8706 13.8208Z" fill="#46A358"/>
<path d="M63.5653 19.44C62.3109 19.3553 60.5735 19.5383 60.2955 21.1108C60.0671 22.3987 61.4968 24.1001 62.5923 24.5576C65.7197 25.8624 66.3883 19.3553 63.691 19.5281C63.0556 19.5688 63.0721 20.5855 63.7109 20.5449C64.5879 20.4872 64.3728 22.6122 64.1742 23.0325C63.7076 24.0323 62.814 23.6662 62.2249 23.0291C61.7715 22.5377 60.9574 21.6667 61.4273 20.9617C61.8807 20.2839 62.8934 20.4127 63.5851 20.4567C64.2238 20.5008 64.1974 19.4841 63.5653 19.44Z" fill="#46A358"/>
<path d="M45.6376 6.39855C45.5383 6.74085 45.4357 7.08316 45.3364 7.42546C45.214 7.84571 45.856 8.00839 45.9785 7.59153C46.0778 7.24922 46.1804 6.90692 46.2797 6.56462C46.4021 6.14437 45.7601 5.98169 45.6376 6.39855Z" fill="#46A358"/>
<path d="M47.0508 6.45631C47.0541 6.68338 47.0607 6.90706 47.064 7.13413C47.0739 7.57133 47.7358 7.55777 47.7259 7.12058C47.7226 6.8935 47.716 6.66982 47.7127 6.44275C47.7061 6.00555 47.0442 6.01911 47.0508 6.45631Z" fill="#46A358"/>
<path d="M46.5808 10.5333C47.0078 10.5231 46.9945 9.84529 46.5676 9.85546C46.144 9.86224 46.1572 10.5401 46.5808 10.5333Z" fill="#46A358"/>
<path d="M44.605 10.9129C44.5752 11.2891 44.5455 11.6687 44.519 12.0449C44.5058 12.2279 44.6911 12.3804 44.8566 12.377C45.0518 12.3737 45.1677 12.2144 45.1809 12.0314C45.2107 11.6552 45.2405 11.2756 45.2669 10.8994C45.2802 10.7164 45.0948 10.5639 44.9294 10.5673C44.7341 10.5706 44.6183 10.7299 44.605 10.9129Z" fill="#46A358"/>
<path d="M46.1704 12.011C46.1804 12.4245 46.187 12.8379 46.1969 13.2548C46.2068 13.692 46.8688 13.6784 46.8588 13.2412C46.8489 12.8278 46.8423 12.4143 46.8323 11.9974C46.8224 11.5602 46.1605 11.5738 46.1704 12.011Z" fill="#46A358"/>
<path d="M47.342 9.61159C47.385 9.9505 47.4281 10.2894 47.4711 10.6249C47.4942 10.8079 47.6167 10.9605 47.8087 10.9571C47.9708 10.9537 48.1562 10.7944 48.133 10.6114C48.09 10.2725 48.0469 9.93355 48.0039 9.59803C47.9807 9.41502 47.8583 9.2625 47.6663 9.26589C47.5009 9.26928 47.3155 9.42857 47.342 9.61159Z" fill="#46A358"/>
<path d="M47.438 14.6952C47.4413 14.885 47.4446 15.0714 47.4479 15.2612C47.4578 15.6984 48.1197 15.6849 48.1098 15.2477C48.1065 15.0579 48.1032 14.8715 48.0999 14.6817C48.09 14.2445 47.4281 14.258 47.438 14.6952Z" fill="#46A358"/>
<path d="M46.005 9.18794C45.9719 9.52347 46.0447 9.83866 46.1804 10.1437C46.2532 10.3097 46.4981 10.3436 46.6371 10.2555C46.8059 10.1505 46.8191 9.95727 46.7463 9.78782C46.6603 9.59464 46.647 9.38112 46.6669 9.171C46.6834 8.98798 46.4915 8.83547 46.3293 8.83886C46.134 8.84564 46.0215 9.00493 46.005 9.18794Z" fill="#46A358"/>
<path d="M43.6949 14.5698C43.6287 14.9493 43.5625 15.3255 43.4964 15.7051C43.4202 16.1321 44.0623 16.3016 44.1384 15.8712C44.2046 15.4916 44.2708 15.1154 44.337 14.7358C44.4098 14.3088 43.771 14.1393 43.6949 14.5698Z" fill="#46A358"/>
<path d="M45.5185 16.9083C45.4887 17.1726 45.4556 17.437 45.4258 17.7013C45.4059 17.8843 45.4754 18.0639 45.6641 18.1148C45.8196 18.1555 46.0447 18.0538 46.0678 17.8708C46.0976 17.6064 46.1307 17.3421 46.1605 17.0777C46.1804 16.8947 46.1109 16.7151 45.9222 16.6642C45.7667 16.6202 45.5416 16.7252 45.5185 16.9083Z" fill="#46A358"/>
<path d="M44.936 21.7311C44.9889 22.0192 44.9559 22.3005 44.8665 22.575C44.7308 22.9885 45.3728 23.1546 45.5085 22.7411C45.6376 22.3479 45.6475 21.9446 45.5714 21.5379C45.5383 21.3583 45.3199 21.26 45.161 21.3109C44.9724 21.3685 44.8996 21.5515 44.936 21.7311Z" fill="#46A358"/>
<path d="M42.9139 18.9961C42.8841 19.2604 42.851 19.5248 42.8212 19.7891C42.8014 19.9722 42.8709 20.1518 43.0595 20.2026C43.215 20.2433 43.4401 20.1416 43.4633 19.9586C43.493 19.6942 43.5261 19.4299 43.5559 19.1655C43.5758 18.9825 43.5063 18.8029 43.3176 18.7521C43.1588 18.7114 42.9337 18.8131 42.9139 18.9961Z" fill="#46A358"/>
<path d="M47.4214 19.5349C47.5009 19.9111 47.577 20.2873 47.6564 20.6601C47.7458 21.0871 48.3812 20.8905 48.2918 20.4669C48.2124 20.0907 48.1363 19.7145 48.0569 19.3417C47.9675 18.9147 47.3354 19.1078 47.4214 19.5349Z" fill="#46A358"/>
<path d="M47.855 24.5169C47.8616 24.8931 47.8715 25.2693 47.8782 25.6455C47.8881 26.0827 48.55 26.0692 48.5401 25.632C48.5334 25.2558 48.5235 24.8796 48.5169 24.5034C48.5103 24.0662 47.8484 24.0797 47.855 24.5169Z" fill="#46A358"/>
<path d="M47.0739 29.4855C47.117 29.7498 47.1567 30.0108 47.1997 30.2751C47.2295 30.4548 47.4545 30.5496 47.6101 30.5022C47.7987 30.4446 47.8616 30.2616 47.8318 30.0819C47.7888 29.8176 47.7491 29.5566 47.7061 29.2923C47.6763 29.1127 47.4512 29.0178 47.2957 29.0652C47.107 29.1194 47.0441 29.3025 47.0739 29.4855Z" fill="#46A358"/>
<path d="M44.3734 26.9639C44.3767 27.191 44.3833 27.4147 44.3866 27.6417C44.3965 28.0789 45.0584 28.0654 45.0485 27.6282C45.0452 27.4011 45.0386 27.1774 45.0353 26.9503C45.0287 26.5132 44.3668 26.5267 44.3734 26.9639Z" fill="#46A358"/>
<path d="M42.5498 24.0627C42.573 24.344 42.5465 24.6084 42.4671 24.8795C42.3446 25.2998 42.9867 25.4624 43.1091 25.0456C43.2051 24.7236 43.2382 24.3847 43.2117 24.0492C43.1753 23.6188 42.5134 23.6289 42.5498 24.0627Z" fill="#46A358"/>
<path d="M43.3805 31.8646C43.3474 32.129 43.3176 32.3933 43.2845 32.6577C43.2614 32.8407 43.3342 33.0203 43.5228 33.0712C43.6784 33.1118 43.9034 33.0102 43.9266 32.8271C43.9597 32.5628 43.9895 32.2984 44.0226 32.0341C44.0457 31.8511 43.9729 31.6715 43.7843 31.6206C43.6254 31.58 43.4037 31.6816 43.3805 31.8646Z" fill="#46A358"/>
<path d="M46.7562 35.7045C46.7992 35.9282 46.839 36.1553 46.882 36.3789C46.9151 36.5586 47.1335 36.6569 47.2924 36.606C47.4777 36.5484 47.5472 36.3654 47.5141 36.1858C47.4711 35.9621 47.4314 35.735 47.3883 35.5113C47.3552 35.3317 47.1368 35.2334 46.978 35.2843C46.7926 35.3419 46.7231 35.5249 46.7562 35.7045Z" fill="#46A358"/>
<path d="M44.9658 39.585C45.0452 39.9612 45.1279 40.334 45.2074 40.7102C45.3 41.1372 45.9322 40.9407 45.8428 40.517C45.7634 40.1408 45.6806 39.768 45.6012 39.3918C45.5085 38.9648 44.8731 39.158 44.9658 39.585Z" fill="#46A358"/>
<path d="M48.6592 42.0387C48.5897 42.303 48.5235 42.5674 48.454 42.8351C48.3448 43.2587 48.9868 43.4248 49.0961 43.0012C49.1656 42.7368 49.2318 42.4725 49.3013 42.2047C49.4105 41.7811 48.7684 41.615 48.6592 42.0387Z" fill="#46A358"/>
<path d="M48.1661 12.6245C48.2091 12.8889 48.2521 13.1498 48.2952 13.4142C48.3249 13.5938 48.55 13.6887 48.7055 13.6413C48.8942 13.5837 48.9571 13.4006 48.9273 13.221C48.8842 12.9567 48.8412 12.6957 48.7982 12.4314C48.7684 12.2517 48.5434 12.1568 48.3878 12.2043C48.2025 12.2619 48.1363 12.4449 48.1661 12.6245Z" fill="#46A358"/>
<path d="M48.2455 17.2777C48.2918 17.6166 48.3382 17.9521 48.3845 18.291C48.411 18.4707 48.5268 18.6266 48.7221 18.6232C48.8842 18.6198 49.0696 18.4605 49.0464 18.2775C49.0001 17.9386 48.9537 17.603 48.9074 17.2641C48.8809 17.0845 48.7651 16.9286 48.5698 16.932C48.4077 16.9354 48.219 17.0981 48.2455 17.2777Z" fill="#46A358"/>
<path d="M53.2098 21.0397C53.1204 21.5718 53.0278 22.1005 52.9384 22.6326C52.8656 23.0597 53.5076 23.2291 53.5804 22.7987C53.6698 22.2666 53.7625 21.7379 53.8518 21.2058C53.9246 20.7788 53.2826 20.6093 53.2098 21.0397Z" fill="#46A358"/>
<path d="M54.4972 20.084C54.5038 20.3484 54.5071 20.6127 54.5137 20.8737C54.5237 21.3109 55.1856 21.2973 55.1756 20.8601C55.169 20.5958 55.1657 20.3314 55.1591 20.0705C55.1492 19.6333 54.4906 19.6468 54.4972 20.084Z" fill="#46A358"/>
<path d="M54.1364 23.707C54.0736 24.2729 54.014 24.8389 53.9511 25.4049C53.9048 25.8387 54.5667 25.8184 54.613 25.3914C54.6759 24.8254 54.7355 24.2594 54.7984 23.6934C54.8447 23.263 54.1828 23.2799 54.1364 23.707Z" fill="#46A358"/>
<path d="M52.4221 24.6999C52.2798 25.0049 52.1408 25.31 51.9985 25.6116C51.8165 26.0047 52.3956 26.3369 52.5777 25.9403C52.72 25.6353 52.859 25.3303 53.0013 25.0287C53.1833 24.6355 52.6041 24.3034 52.4221 24.6999Z" fill="#46A358"/>
<path d="M51.4259 22.8868C51.3399 23.1173 51.2572 23.3444 51.1711 23.5748C51.1082 23.7477 51.2505 23.9442 51.4094 23.9883C51.598 24.0391 51.747 23.9137 51.8132 23.7443C51.8992 23.5138 51.9819 23.2867 52.068 23.0563C52.1309 22.8834 51.9886 22.6869 51.8297 22.6428C51.6411 22.592 51.4921 22.714 51.4259 22.8868Z" fill="#46A358"/>
<path d="M53.3157 27.34C53.3024 27.6417 53.2925 27.9433 53.2793 28.2449C53.2627 28.6821 53.9246 28.6652 53.9412 28.2314C53.9544 27.9297 53.9643 27.6281 53.9776 27.3265C53.9941 26.8893 53.3322 26.9062 53.3157 27.34Z" fill="#46A358"/>
<path d="M54.6726 29.1194C54.6593 29.4007 54.6461 29.6854 54.6329 29.9666C54.6229 30.1497 54.8017 30.3022 54.9704 30.2988C55.1591 30.2954 55.2849 30.1361 55.2948 29.9531C55.308 29.6718 55.3213 29.3871 55.3345 29.1058C55.3444 28.9228 55.1657 28.7703 54.9969 28.7737C54.8083 28.7771 54.6825 28.9364 54.6726 29.1194Z" fill="#46A358"/>
<path d="M54.1497 32.1492C54.1199 32.3932 54.0868 32.6406 54.057 32.8846C54.0339 33.0643 54.11 33.2473 54.2953 33.2981C54.4542 33.3388 54.6759 33.2371 54.6991 33.0541C54.7288 32.8101 54.7619 32.5627 54.7917 32.3186C54.8149 32.139 54.7388 31.956 54.5534 31.9052C54.3946 31.8611 54.1728 31.9662 54.1497 32.1492Z" fill="#46A358"/>
<path d="M51.6808 30.0548C51.6477 30.2616 51.6146 30.4717 51.5815 30.6784C51.5517 30.8581 51.6378 31.0411 51.8198 31.0919C51.982 31.1326 52.1938 31.0275 52.2235 30.8479C52.2566 30.6412 52.2897 30.431 52.3228 30.2243C52.3526 30.0447 52.2666 29.8617 52.0845 29.8108C51.9224 29.7668 51.7106 29.8718 51.6808 30.0548Z" fill="#46A358"/>
<path d="M52.1574 35.4435C52.1607 35.5926 52.164 35.7451 52.1673 35.8943C52.1772 36.3315 52.8391 36.3179 52.8292 35.8807C52.8259 35.7316 52.8226 35.5791 52.8193 35.43C52.8093 34.9928 52.1474 35.0063 52.1574 35.4435Z" fill="#46A358"/>
<path d="M54.2953 37.4328C54.2986 37.582 54.3019 37.7345 54.3052 37.8836C54.3152 38.3208 54.9771 38.3072 54.9671 37.87C54.9638 37.7209 54.9605 37.5684 54.9572 37.4193C54.9473 36.9821 54.2854 36.9956 54.2953 37.4328Z" fill="#46A358"/>
<path d="M52.389 41.5406C52.4155 41.8049 52.389 42.0489 52.3063 42.2997C52.25 42.4726 52.3824 42.6691 52.5446 42.7132C52.7299 42.7606 52.8888 42.642 52.9483 42.4692C53.0476 42.1676 53.084 41.8456 53.0509 41.5304C53.0311 41.3474 52.902 41.1949 52.7134 41.1983C52.5446 41.1983 52.3692 41.3576 52.389 41.5406Z" fill="#46A358"/>
<path d="M53.2065 19.3213C53.1204 19.4942 53.0311 19.667 52.945 19.8365C52.7498 20.2228 53.3256 20.555 53.5242 20.1652C53.6102 19.9924 53.6996 19.8195 53.7856 19.6501C53.9809 19.2637 53.405 18.9316 53.2065 19.3213Z" fill="#46A358"/>
<path d="M36.04 12.8787C36.0996 13.2346 36.1625 13.5938 36.222 13.9497C36.2518 14.1293 36.4769 14.2242 36.6324 14.1767C36.8211 14.1191 36.8872 13.9361 36.8542 13.7565C36.7946 13.4006 36.7317 13.0414 36.6721 12.6855C36.6423 12.5059 36.4173 12.411 36.2618 12.4585C36.0731 12.5161 36.0069 12.6991 36.04 12.8787Z" fill="#46A358"/>
<path d="M37.0262 15.1189C37.1785 15.4917 37.334 15.8679 37.4863 16.2407C37.5558 16.4102 37.7146 16.5254 37.8966 16.4678C38.0522 16.4204 38.1879 16.217 38.1184 16.0476C37.9661 15.6748 37.8106 15.2986 37.6584 14.9258C37.5889 14.7563 37.43 14.6411 37.248 14.6987C37.0924 14.7461 36.9567 14.9495 37.0262 15.1189Z" fill="#46A358"/>
<path d="M36.1228 16.3695C36.0466 16.8915 36.0533 17.3897 36.1426 17.9048C36.2154 18.3318 36.8475 18.1387 36.778 17.7116C36.7118 17.3253 36.7118 16.9254 36.7681 16.5356C36.8244 16.1086 36.1823 15.9391 36.1228 16.3695Z" fill="#46A358"/>
<path d="M37.3804 18.3284C37.4929 18.647 37.6021 18.9689 37.7146 19.2875C37.8569 19.6976 38.4924 19.5078 38.3501 19.0943C38.2375 18.7757 38.1283 18.4538 38.0158 18.1352C37.8735 17.7251 37.2381 17.9149 37.3804 18.3284Z" fill="#46A358"/>
<path d="M35.8414 19.6841C35.8481 20.0603 35.858 20.4364 35.8646 20.8126C35.8745 21.2498 36.5364 21.2363 36.5265 20.7991C36.5199 20.4229 36.51 20.0467 36.5033 19.6705C36.4967 19.2333 35.8348 19.2469 35.8414 19.6841Z" fill="#46A358"/>
<path d="M37.0825 20.9584C37.0891 21.2973 37.0958 21.6362 37.1024 21.9751C37.1123 22.4123 37.7742 22.3987 37.7643 21.9615C37.7577 21.6226 37.751 21.2837 37.7444 20.9448C37.7345 20.5076 37.0726 20.5212 37.0825 20.9584Z" fill="#46A358"/>
<path d="M38.9325 21.6294C39.0649 22.0225 39.2006 22.4156 39.333 22.8088C39.472 23.2189 40.1074 23.0291 39.9684 22.6156C39.836 22.2225 39.7003 21.8293 39.568 21.4362C39.429 21.0261 38.7935 21.2159 38.9325 21.6294Z" fill="#46A358"/>
<path d="M39.6573 25.0049C39.697 25.2116 39.7401 25.4184 39.7798 25.6251C39.8162 25.8047 40.0313 25.903 40.1901 25.8522C40.3755 25.7946 40.4483 25.6116 40.4119 25.4319C40.3722 25.2252 40.3291 25.0185 40.2894 24.8117C40.253 24.6321 40.0379 24.5338 39.8791 24.5846C39.697 24.6389 39.6209 24.8253 39.6573 25.0049Z" fill="#46A358"/>
<path d="M37.8404 25.0422C37.9496 25.3608 38.029 25.6861 38.0654 26.0216C38.0853 26.2046 38.2144 26.3572 38.403 26.3538C38.5685 26.3504 38.7472 26.1911 38.7273 26.0081C38.6843 25.6115 38.6049 25.2252 38.4758 24.849C38.3335 24.4389 37.6981 24.6287 37.8404 25.0422Z" fill="#46A358"/>
<path d="M36.1426 23.6899C36.1492 23.9543 36.1525 24.2187 36.1592 24.4796C36.1691 24.9168 36.831 24.9033 36.8211 24.4661C36.8144 24.2017 36.8111 23.9374 36.8045 23.6764C36.7946 23.2392 36.136 23.2528 36.1426 23.6899Z" fill="#46A358"/>
<path d="M36.9402 27.74C36.9667 28.0789 37.0296 28.411 37.1388 28.7296C37.2811 29.1397 37.9165 28.9499 37.7742 28.5364C37.6815 28.272 37.622 28.0043 37.6021 27.7264C37.5723 27.2926 36.9104 27.3062 36.9402 27.74Z" fill="#46A358"/>
<path d="M38.3898 30.6242C38.4493 30.8309 38.5089 31.0377 38.5685 31.241C38.6876 31.6579 39.3231 31.4681 39.2039 31.0478C39.1443 30.8411 39.0848 30.6378 39.0252 30.431C38.9061 30.0142 38.2706 30.2039 38.3898 30.6242Z" fill="#46A358"/>
<path d="M39.1675 28.0078C39.2072 28.1569 39.2469 28.306 39.2867 28.4585C39.3992 28.8788 40.0346 28.6856 39.9221 28.2654C39.8824 28.1162 39.8426 27.9671 39.8029 27.8146C39.6904 27.3943 39.055 27.5875 39.1675 28.0078Z" fill="#46A358"/>
<path d="M37.291 33.6438C37.3738 33.9793 37.4532 34.3182 37.5359 34.6537C37.6385 35.0774 38.2739 34.8842 38.1713 34.4606C38.0886 34.125 38.0092 33.7861 37.9264 33.4506C37.8238 33.027 37.1884 33.2201 37.291 33.6438Z" fill="#46A358"/>
<path d="M38.9358 38.5785C38.9954 38.7276 39.0517 38.8768 39.1112 39.0259C39.1774 39.1953 39.3396 39.3106 39.5216 39.2529C39.6805 39.2055 39.8096 39.0022 39.7434 38.8327C39.6838 38.6836 39.6275 38.5345 39.568 38.3853C39.5018 38.2159 39.3396 38.1006 39.1576 38.1583C38.9987 38.2057 38.8697 38.4091 38.9358 38.5785Z" fill="#46A358"/>
<path d="M60.4808 24.5338C60.3054 24.8965 60.1267 25.2557 59.9513 25.6183C59.7593 26.0081 60.3385 26.3402 60.5304 25.9471C60.7058 25.5845 60.8845 25.2252 61.0599 24.8626C61.2519 24.4728 60.6727 24.1441 60.4808 24.5338Z" fill="#46A358"/>
<path d="M61.4075 25.3845C61.3247 25.7268 61.2387 26.0657 61.1559 26.408C61.05 26.8317 61.6921 26.9977 61.798 26.5741C61.8807 26.2318 61.9668 25.8929 62.0495 25.5506C62.1521 25.1303 61.51 24.9643 61.4075 25.3845Z" fill="#46A358"/>
<path d="M60.5933 28.6246C60.5106 28.9093 60.4278 29.194 60.3418 29.4786C60.2193 29.8989 60.8614 30.0616 60.9838 29.6447C61.0666 29.36 61.1493 29.0753 61.2354 28.7906C61.3545 28.3738 60.7125 28.2077 60.5933 28.6246Z" fill="#46A358"/>
<path d="M60.0373 27.252C59.9678 27.3841 59.895 27.5197 59.8255 27.6519C59.6203 28.0349 60.1995 28.367 60.4047 27.9806C60.4742 27.8485 60.547 27.7129 60.6165 27.5807C60.8217 27.2011 60.2425 26.869 60.0373 27.252Z" fill="#46A358"/>
<path d="M61.6722 27.4146C61.6424 27.679 61.6126 27.9433 61.5829 28.2077C61.563 28.3907 61.6325 28.5703 61.8211 28.6212C61.9767 28.6618 62.2017 28.5602 62.2249 28.3771C62.2547 28.1128 62.2845 27.8484 62.3143 27.5841C62.3341 27.4011 62.2646 27.2215 62.076 27.1706C61.9171 27.1299 61.6921 27.2316 61.6722 27.4146Z" fill="#46A358"/>
<path d="M58.5546 29.1736C58.4885 29.3905 58.3892 29.5871 58.27 29.7769C58.0384 30.1429 58.6175 30.4716 58.8492 30.1056C59.0014 29.8684 59.114 29.6108 59.1967 29.3397C59.2496 29.1668 59.1239 28.9703 58.9584 28.9262C58.7731 28.8821 58.6076 28.9974 58.5546 29.1736Z" fill="#46A358"/>
<path d="M58.5348 32.0883C58.3925 32.3289 58.323 32.6034 58.3362 32.8847C58.3561 33.3185 59.018 33.3083 58.9981 32.8711C58.9915 32.7017 59.0246 32.5627 59.114 32.4204C59.3357 32.0442 58.7565 31.7154 58.5348 32.0883Z" fill="#46A358"/>
<path d="M60.259 31.3426C60.1929 31.5697 60.1267 31.8002 60.0638 32.0272C59.9446 32.4475 60.5867 32.6102 60.7058 32.1933C60.772 31.9662 60.8382 31.7358 60.9011 31.5087C61.0202 31.0885 60.3782 30.9258 60.259 31.3426Z" fill="#46A358"/>
<path d="M59.713 34.6842C59.6435 34.9317 59.5773 35.1757 59.5078 35.4231C59.392 35.8433 60.034 36.0094 60.1498 35.5892C60.2193 35.3417 60.2855 35.0977 60.355 34.8503C60.4709 34.4334 59.8288 34.2674 59.713 34.6842Z" fill="#46A358"/>
<path d="M61.8112 29.8718C61.7947 30.0243 61.7814 30.1734 61.7649 30.3259C61.745 30.5089 61.9403 30.6614 62.1024 30.658C62.301 30.6547 62.4069 30.4954 62.4268 30.3124C62.4433 30.1599 62.4566 30.0107 62.4731 29.8582C62.493 29.6752 62.2977 29.5227 62.1355 29.5261C61.937 29.5329 61.8311 29.6888 61.8112 29.8718Z" fill="#46A358"/>
<path d="M57.6545 36.65C57.6214 36.7652 57.585 36.8771 57.5519 36.9923C57.4261 37.4092 58.0682 37.5753 58.1939 37.1584C58.227 37.0432 58.2634 36.9313 58.2965 36.8161C58.4223 36.3992 57.7802 36.2365 57.6545 36.65Z" fill="#46A358"/>
<path d="M57.1216 40.1103C57.0521 40.3001 56.9793 40.4899 56.9098 40.6797C56.8469 40.8492 56.9893 41.0491 57.1481 41.0932C57.3401 41.144 57.4857 41.0186 57.5519 40.8492C57.6214 40.6594 57.6942 40.4696 57.7637 40.2798C57.8265 40.1103 57.6842 39.9104 57.5254 39.8663C57.3334 39.8155 57.1878 39.9375 57.1216 40.1103Z" fill="#46A358"/>
<path d="M59.7262 38.731C59.7295 38.8428 59.7295 38.9581 59.7328 39.0699C59.7428 39.5071 60.4047 39.4935 60.3947 39.0563C60.3914 38.9445 60.3914 38.8293 60.3881 38.7174C60.3782 38.2802 59.7163 38.2938 59.7262 38.731Z" fill="#46A358"/>
<path d="M58.4918 43.2214C58.4752 43.374 58.462 43.5231 58.4454 43.6756C58.4256 43.8586 58.6208 44.0111 58.783 44.0077C58.9816 44.0043 59.0875 43.8451 59.1073 43.662C59.1239 43.5095 59.1371 43.3604 59.1537 43.2079C59.1735 43.0249 58.9783 42.8724 58.8161 42.8758C58.6208 42.8791 58.5116 43.0384 58.4918 43.2214Z" fill="#46A358"/>
<path d="M28.2593 29.0888C28.3156 29.2752 28.3752 29.465 28.4314 29.6514C28.5572 30.0683 29.1926 29.8751 29.0669 29.4582C29.0106 29.2718 28.951 29.082 28.8948 28.8956C28.7657 28.4788 28.1303 28.672 28.2593 29.0888Z" fill="#46A358"/>
<path d="M28.9411 28.3195C29.1628 28.6008 29.3879 28.8821 29.6096 29.16C29.7222 29.3024 29.9637 29.2719 30.0763 29.1499C30.212 29.0041 30.1789 28.8144 30.0663 28.672C29.8446 28.3907 29.6196 28.1094 29.3978 27.8315C29.2853 27.6892 29.0437 27.7197 28.9312 27.8417C28.7955 27.984 28.8286 28.1772 28.9411 28.3195Z" fill="#46A358"/>
<path d="M30.212 30.7055C30.4039 30.9835 30.5959 31.2614 30.7845 31.5359C31.0294 31.8917 31.5953 31.5393 31.3504 31.1834C31.1585 30.9055 30.9665 30.6276 30.7779 30.3531C30.5297 29.9972 29.9637 30.3463 30.212 30.7055Z" fill="#46A358"/>
<path d="M29.3978 31.5155C29.5501 31.7764 29.7023 32.0374 29.8545 32.2984C30.073 32.6712 30.6389 32.3187 30.4205 31.9459C30.2682 31.6849 30.116 31.424 29.9638 31.163C29.742 30.7868 29.1794 31.1393 29.3978 31.5155Z" fill="#46A358"/>
<path d="M30.8805 34.3115C31.0724 34.664 31.2677 35.0165 31.4596 35.3689C31.6681 35.7485 32.2341 35.3961 32.0256 35.0165C31.8336 34.664 31.6384 34.3115 31.4464 33.9591C31.2346 33.5795 30.672 33.932 30.8805 34.3115Z" fill="#46A358"/>
<path d="M31.4663 33.2846C31.5986 33.4879 31.731 33.6946 31.8634 33.898C32.0984 34.2606 32.6643 33.9082 32.4293 33.5455C32.297 33.3422 32.1646 33.1354 32.0322 32.9321C31.7939 32.5694 31.228 32.9185 31.4663 33.2846Z" fill="#46A358"/>
<path d="M31.7741 31.8612C31.8833 32.1019 32.0686 32.2883 32.2903 32.4238C32.661 32.6441 32.982 32.051 32.6114 31.8307C32.479 31.7528 32.3996 31.6477 32.3367 31.5088C32.2606 31.3427 32.0223 31.3088 31.88 31.3969C31.7178 31.502 31.6979 31.6952 31.7741 31.8612Z" fill="#46A358"/>
<path d="M29.2919 33.6404C29.3349 33.8268 29.3747 34.0132 29.4177 34.203C29.4574 34.3826 29.6659 34.4809 29.8281 34.4301C30.0101 34.3759 30.0895 34.1861 30.0498 34.0098C30.0068 33.8234 29.9671 33.637 29.924 33.4472C29.8843 33.2676 29.6758 33.1693 29.5137 33.2202C29.3316 33.2744 29.2522 33.4642 29.2919 33.6404Z" fill="#46A358"/>
<path d="M31.3802 37.182C31.5325 37.5006 31.6847 37.8192 31.8336 38.1344C31.9131 38.3005 32.148 38.3343 32.2903 38.2462C32.4558 38.1446 32.479 37.9446 32.3996 37.7785C32.2473 37.46 32.0951 37.1414 31.9462 36.8262C31.8667 36.6601 31.6317 36.6262 31.4894 36.7143C31.324 36.8194 31.3008 37.0194 31.3802 37.182Z" fill="#46A358"/>
<path d="M33.8524 36.223C33.9683 36.4467 34.0808 36.6704 34.1966 36.8941C34.3952 37.2804 34.9578 36.9246 34.7625 36.5416C34.6467 36.3179 34.5342 36.0943 34.4184 35.8706C34.2165 35.4842 33.6539 35.8367 33.8524 36.223Z" fill="#46A358"/>
<path d="M34.607 41.0695C34.703 41.2559 34.799 41.4423 34.8982 41.6253C35.1001 42.0117 35.6627 41.6558 35.4642 41.2728C35.3682 41.0864 35.2722 40.9 35.1729 40.717C34.971 40.3307 34.4051 40.6831 34.607 41.0695Z" fill="#46A358"/>
<path d="M35.7819 39.3512C35.8944 39.5376 36.0102 39.724 36.1228 39.9104C36.3478 40.2798 36.9137 39.9273 36.6887 39.5579C36.5762 39.3715 36.4603 39.1851 36.3478 38.9987C36.1194 38.6293 35.5535 38.9818 35.7819 39.3512Z" fill="#46A358"/>
<path d="M37.0991 44.5772C37.1917 44.7466 37.2877 44.9127 37.3804 45.0822C37.5922 45.4617 38.1548 45.1059 37.9463 44.7297C37.8536 44.5602 37.7577 44.3942 37.665 44.2247C37.4532 43.8451 36.8873 44.1976 37.0991 44.5772Z" fill="#46A358"/>
<path d="M26.4259 42.4828C26.6476 42.5912 26.8727 42.6963 27.0944 42.8047C27.4783 42.9911 27.8026 42.398 27.4154 42.2116C27.1937 42.1032 26.9686 41.9981 26.7469 41.8897C26.3663 41.7067 26.042 42.2964 26.4259 42.4828Z" fill="#46A358"/>
<path d="M28.534 43.4688C28.7789 43.6485 29.0238 43.8315 29.2654 44.0111C29.4111 44.1196 29.6361 44.028 29.7155 43.8789C29.8115 43.7027 29.7321 43.5265 29.5865 43.418C29.3416 43.2384 29.0967 43.0554 28.8551 42.8757C28.7094 42.7673 28.4844 42.8588 28.405 43.0079C28.3123 43.1842 28.3917 43.3604 28.534 43.4688Z" fill="#46A358"/>
<path d="M28.2097 42.4319C28.3785 42.4692 28.534 42.5268 28.6863 42.6149C29.0603 42.825 29.3813 42.2319 29.0073 42.0218C28.8087 41.91 28.5936 41.8253 28.3719 41.7744C27.9582 41.6795 27.7927 42.337 28.2097 42.4319Z" fill="#46A358"/>
<path d="M30.1491 43.879C30.298 43.9874 30.4469 44.0993 30.5959 44.2077C30.7415 44.3128 30.9665 44.2247 31.046 44.0755C31.1419 43.8993 31.0625 43.7197 30.9169 43.6146C30.768 43.5062 30.619 43.3943 30.4701 43.2859C30.3245 43.1808 30.0994 43.2689 30.02 43.418C29.9273 43.5943 30.0035 43.7705 30.1491 43.879Z" fill="#46A358"/>
<path d="M30.1027 44.8924C30.1789 45.0042 30.255 45.1161 30.3311 45.2279C30.5727 45.5838 31.1386 45.2347 30.897 44.8754C30.8209 44.7636 30.7448 44.6517 30.6687 44.5399C30.4271 44.1806 29.8578 44.5331 30.1027 44.8924Z" fill="#46A358"/>
<path d="M31.602 45.438C31.7509 45.5668 31.8998 45.6955 32.0521 45.8243C32.1877 45.9429 32.3896 45.9531 32.5187 45.8142C32.6378 45.6888 32.6478 45.4515 32.5088 45.3363C32.3598 45.2075 32.2109 45.0787 32.0587 44.9499C31.923 44.8313 31.7211 44.8211 31.592 44.9601C31.4729 45.0821 31.463 45.3193 31.602 45.438Z" fill="#46A358"/>
<path d="M65.7628 35.4537C65.4087 35.3859 65.0578 35.3927 64.707 35.4842C64.2933 35.5926 64.482 36.2434 64.8957 36.1349C65.1273 36.0739 65.3623 36.0637 65.5973 36.1112C66.0176 36.1925 66.1798 35.535 65.7628 35.4537Z" fill="#46A358"/>
<path d="M63.4792 36.1552C63.3534 36.2535 63.2244 36.3484 63.0986 36.4466C62.9563 36.5551 62.8901 36.7449 62.9894 36.9143C63.0754 37.0601 63.3005 37.138 63.4461 37.0262C63.5719 36.9279 63.7009 36.833 63.8267 36.7347C63.969 36.6263 64.0352 36.4365 63.9359 36.267C63.8499 36.1213 63.6248 36.0467 63.4792 36.1552Z" fill="#46A358"/>
<path d="M63.5851 35.823C64.012 35.8129 63.9988 35.1351 63.5719 35.1452C63.1449 35.1554 63.1582 35.8332 63.5851 35.823Z" fill="#46A358"/>
</g>
<g clip-path="url(#clip1_38202_51)">
<path d="M30.3859 49.3258C28.0446 55.5563 26.3971 62.0673 25.8568 68.7535C25.3966 74.4686 25.5367 80.6324 28.5582 85.6182C28.9051 86.1897 29.7589 85.6427 29.412 85.0677C26.3804 80.0679 26.3871 73.7954 26.914 68.0838C27.501 61.7201 29.1285 55.5177 31.3564 49.5853C31.5898 48.9577 30.6193 48.7053 30.3859 49.3258Z" fill="#727272"/>
<path d="M60.7884 48.3616C66.1145 52.569 66.1212 60.2825 66.6948 66.6147C66.985 69.8088 67.3852 73.0134 67.5253 76.2216C67.6553 79.1527 67.4219 82.2662 65.2141 84.3419C64.7338 84.7941 65.4575 85.5199 65.9344 85.0711C67.8788 83.2444 68.4791 80.6288 68.5458 77.9746C68.6425 74.195 68.0322 70.3522 67.692 66.5971C67.095 59.9985 67.0217 51.9834 61.4788 47.6042C60.9718 47.201 60.2748 47.9548 60.7884 48.3616Z" fill="#727272"/>
<path d="M28.7583 85.8285C31.5832 86.8979 34.4713 87.1643 37.4429 87.4273C40.7313 87.7183 44.0497 88.1566 47.3547 88.0339C50.7098 87.9112 54.0749 87.4098 57.41 87.0311C60.3282 86.698 63.223 86.2773 65.9444 85.0571C66.5281 84.7942 66.2513 83.7809 65.6576 84.0474C62.8361 85.3131 59.8412 85.7058 56.8163 86.0424C53.668 86.393 50.4997 86.8663 47.3347 86.982C44.2331 87.0977 41.1248 86.7015 38.0365 86.4316C34.9583 86.1581 31.9367 85.9197 29.0051 84.8117C28.3982 84.5768 28.158 85.6006 28.7583 85.8285Z" fill="#727272"/>
<path d="M30.626 49.9149C32.9539 50.9141 35.3318 51.7977 37.8431 52.1097C40.4545 52.4323 43.1158 51.9695 45.7439 52.0396C47.2013 52.0782 48.512 52.2851 49.9828 52.0642C51.2501 51.8713 52.5174 51.6049 53.7481 51.2367C56.2994 50.4724 58.7707 49.4065 61.2753 48.4879C61.879 48.267 61.5988 47.2572 60.9885 47.4781C56.0859 49.2768 51.4902 51.377 46.1975 51.0158C43.9963 50.8651 41.8052 51.2052 39.6107 51.1841C36.6558 51.1526 33.8143 50.1568 31.1062 48.9963C30.5226 48.7438 30.029 49.6589 30.626 49.9149Z" fill="#727272"/>
<path d="M0.663676 53.0809C6.2666 54.0065 11.4793 56.7939 15.3847 61.1381C19.1633 65.342 21.2878 70.8817 25.4099 74.7841C25.8868 75.2364 26.5839 74.479 26.1036 74.0268C21.7347 69.8895 19.5502 63.9044 15.348 59.6024C11.4126 55.5738 6.3233 52.9547 0.910471 52.0606C0.276807 51.9554 0.0266764 52.9757 0.663676 53.0809Z" fill="#727272"/>
<path d="M1.53747 51.1981C6.62346 49.9779 12.0296 50.7037 16.5987 53.3929C20.2439 55.5387 23.2355 58.9292 27.5877 59.392C28.2281 59.4586 28.2014 58.4068 27.5677 58.3401C22.6852 57.8212 19.1633 53.1966 14.761 51.2963C10.4688 49.445 5.76301 49.1084 1.25399 50.1883C0.623656 50.3391 0.910473 51.3488 1.53747 51.1981Z" fill="#727272"/>
<path d="M0.723709 50.4933C0.340175 51.0473 0.0933795 51.696 0.00666752 52.3726C-0.0300183 52.6566 0.0867093 52.9336 0.370191 53.0108C0.606981 53.0774 0.940489 52.9126 0.977174 52.6286C1.05388 52.0255 1.25732 51.4961 1.5975 51.0017C1.75758 50.7703 1.61751 50.4162 1.40406 50.2865C1.14726 50.1357 0.880457 50.2654 0.723709 50.4933Z" fill="#727272"/>
<path d="M64.8105 51.4539C66.8783 47.2921 73.4483 46.7556 77.1569 48.663C81.1757 50.7316 83.03 55.7419 81.3825 60.1246C79.9484 63.9429 76.2631 65.8116 73.2316 68.0135C71.9542 68.9427 70.5335 69.9875 69.6497 71.3584C68.7259 72.7924 68.8459 74.6156 67.9321 76.0462C67.572 76.6106 68.4491 77.1155 68.8059 76.5581C69.3829 75.657 69.5496 74.6963 69.8064 73.6655C70.17 72.2244 70.897 71.2988 71.9409 70.3556C73.7385 68.7323 75.8463 67.5577 77.7606 66.1027C81.149 63.5256 83.5269 59.8652 82.8966 55.2791C82.3196 51.1033 79.1246 47.6497 75.1792 46.8889C71.2038 46.121 65.9644 46.8608 63.9334 50.9455C63.6366 51.5415 64.5104 52.0534 64.8105 51.4539Z" fill="#727272"/>
<path d="M65.8244 54.1012C67.2084 51.1981 70.3601 50.4478 73.2216 50.6792C75.1292 50.8335 76.3065 51.6223 77.3037 53.3439C78.4076 55.2442 78.3542 56.8535 77.7306 58.8801C76.7501 62.0567 74.9825 63.5293 72.2644 65.0194C70.4835 65.9941 67.7654 67.2704 67.055 69.4267C66.8449 70.0683 67.8154 70.3207 68.0255 69.6861C68.6725 67.7227 71.8475 66.4464 73.4817 65.5383C74.8991 64.7529 76.2265 63.8869 77.1836 62.502C78.6978 60.3141 79.9417 56.7413 78.8445 54.1503C77.5038 50.9807 75.4527 49.5747 72.1777 49.5993C69.2628 49.6203 66.3246 50.7142 64.9539 53.5893C64.6638 54.1924 65.5376 54.7043 65.8244 54.1012Z" fill="#727272"/>
<path d="M47.308 61.7096C44.3665 62.1689 41.8819 64.4689 41.585 67.6841C41.3016 70.7485 43.2693 74.7385 46.611 74.5036C49.6593 74.2897 52.3673 71.1833 52.6475 68.0768C52.9576 64.6583 50.5197 61.678 47.208 61.8288C46.5643 61.8568 46.5843 62.9087 47.228 62.8807C50.1328 62.7474 52.1339 65.5383 51.5903 68.4765C51.15 70.8537 48.9689 73.2519 46.591 73.4553C43.6695 73.7042 42.1787 69.8158 42.6423 67.2914C43.0858 64.8722 45.0569 63.1191 47.328 62.7649C47.955 62.6633 47.945 61.6079 47.308 61.7096Z" fill="#727272"/>
<path d="M47.8817 62.1689C47.7049 59.939 51.0366 56.5485 52.7042 59.1291C53.2211 59.9285 53.7214 61.3485 53.5079 62.3337C53.2778 63.3891 52.294 64.1779 51.5402 64.8266C51.0433 65.2543 51.7704 65.9801 52.2606 65.5559C53.4479 64.5356 54.6685 63.3119 54.5552 61.5623C54.4618 60.1318 53.708 58.2455 52.5208 57.4601C49.9861 55.7807 46.6777 59.6269 46.8811 62.1935C46.9345 62.8631 47.935 62.8456 47.8817 62.1689Z" fill="#727272"/>
<path d="M52.5274 65.7908C53.7814 65.0089 57.0264 65.2158 56.6896 67.4738C56.3694 69.6266 53.718 69.7142 52.1472 69.7353C51.5035 69.7423 51.5236 70.7941 52.1672 70.7871C54.3717 70.7591 58.2271 70.0298 57.6768 66.7515C57.2432 64.178 53.7881 63.7783 52.0038 64.8932C51.4502 65.2403 51.9705 66.1379 52.5274 65.7908Z" fill="#727272"/>
<path d="M51.5202 70.9798C53.2745 71.7933 55.2488 74.209 53.5813 76.1584C51.6303 78.4375 48.8088 76.183 48.0884 73.9846C47.8783 73.3465 46.9178 73.641 47.1279 74.2862C48.0618 77.1261 51.4268 79.5805 54.0215 77.1717C56.5429 74.8331 54.5385 71.2358 52.0072 70.0577C51.4235 69.7877 50.9333 70.7064 51.5202 70.9798Z" fill="#727272"/>
<path d="M46.6477 74.2476C46.7377 76.0147 46.2675 78.6443 44.0063 78.3288C42.9791 78.185 42.1887 77.2138 42.2354 76.1129C42.2754 75.1241 42.9391 73.9706 43.3026 73.066C43.5494 72.4489 42.6789 71.93 42.4288 72.5541C41.8985 73.8795 40.9781 75.4257 41.3182 76.9228C41.595 78.1359 42.5055 79.1001 43.6728 79.3421C46.651 79.9627 47.7749 76.7335 47.6482 74.2231C47.6149 73.5499 46.6143 73.5674 46.6477 74.2476Z" fill="#727272"/>
<path d="M43.1659 71.7583C41.3016 72.5682 38.4234 72.3613 37.773 69.9035C37.4896 68.8236 37.8064 67.5474 38.7702 66.9618C39.7074 66.3938 40.918 66.5446 41.9386 66.6743C42.5689 66.755 42.8223 65.7347 42.1853 65.654C40.7713 65.4752 39.1671 65.3174 37.9498 66.2711C36.9393 67.0635 36.5291 68.4519 36.7225 69.7317C37.2228 73.038 40.9013 73.869 43.4493 72.7645C44.043 72.5121 43.7628 71.4988 43.1659 71.7583Z" fill="#727272"/>
<path d="M42.5455 65.7732C40.8613 64.8265 39.9809 61.3484 41.4583 59.8443C43.3993 57.8703 45.7839 60.6682 46.9578 62.1829C47.3647 62.7053 48.0517 61.9445 47.6515 61.4256C46.1174 59.4481 42.799 56.4223 40.5312 59.2728C38.8636 61.373 39.8608 65.4576 42.0586 66.6953C42.6256 67.0144 43.1158 66.0958 42.5455 65.7732Z" fill="#727272"/>
<path d="M44.153 73.5043C43.3626 74.3037 42.849 76.4671 44.063 77.1227C45.5171 77.9116 46.1608 75.2294 46.3542 74.2617C46.4409 73.8199 45.7939 73.6481 45.7072 74.0899C45.6205 74.5281 45.5104 74.9594 45.357 75.3801C45.2803 75.587 45.1969 75.7939 45.0969 75.9902C44.9435 76.2953 44.8534 76.4916 44.4999 76.4495C43.5461 76.3268 44.1997 74.43 44.6366 73.9917C44.9435 73.6761 44.4632 73.1923 44.153 73.5043Z" fill="#727272"/>
<path d="M48.452 73.5534C48.2819 74.5631 49.3691 75.3555 50.1462 75.7167C50.9333 76.0813 52.0305 76.204 52.7675 75.6325C53.4712 75.0856 53.3612 74.0933 53.0577 73.336C52.6441 72.3052 51.7937 71.6109 50.8099 71.2463C50.403 71.0955 50.2429 71.7792 50.6464 71.9265C51.2401 72.1474 51.7737 72.519 52.1506 73.059C52.2806 73.2483 52.3807 73.4482 52.4641 73.6656C52.6575 74.1775 52.6875 74.4089 52.344 74.8542C52.0505 75.2328 51.8971 75.3205 51.4502 75.324C51.17 75.324 50.8799 75.2644 50.6164 75.1662C50.2129 75.0154 48.9956 74.3493 49.099 73.7322C49.1723 73.2834 48.5287 73.1081 48.452 73.5534Z" fill="#727272"/>
<path d="M52.3207 69.0165C53.1578 69.2374 53.9915 68.8588 54.6952 68.3924C55.2088 68.0523 55.8858 67.4318 55.8258 66.713C55.7758 66.1134 55.2088 65.8294 54.7019 65.7663C53.8281 65.6541 52.971 66.0503 52.2606 66.5482C51.9038 66.7971 52.2506 67.4002 52.6075 67.1478C52.9777 66.8848 53.3712 66.6534 53.8081 66.5377C54.2116 66.429 55.3856 66.2537 55.0287 67.1337C54.7152 67.9156 53.1944 68.5222 52.4841 68.3363C52.0672 68.2277 51.9038 68.9078 52.3207 69.0165Z" fill="#727272"/>
<path d="M49.209 62.4705C49.1557 61.9376 49.2624 61.4081 49.6292 61.0155C49.896 60.7244 50.5431 60.3388 50.9233 60.5632C51.2601 60.763 51.2368 61.6045 51.2368 61.9937C51.2334 62.5512 51.12 63.0806 50.9433 63.603C50.7999 64.0272 51.4469 64.1955 51.5903 63.7748C51.8771 62.9263 51.9771 62.0357 51.8404 61.1417C51.747 60.5281 51.647 59.918 50.99 59.8269C49.5359 59.62 48.4053 61.04 48.5487 62.488C48.5854 62.9298 49.2524 62.9193 49.209 62.4705Z" fill="#727272"/>
<path d="M43.0158 64.816C42.4989 64.1323 42.0553 62.8912 42.2287 62.0111C42.3321 61.4782 42.4522 61.3239 42.9791 61.2678C43.506 61.2117 43.6361 61.3765 44.0163 61.6991C44.4032 62.0251 44.78 62.3617 45.1636 62.6913C45.4937 62.9753 45.9573 62.4739 45.6238 62.1864C44.6833 61.373 43.1725 59.4972 41.9752 60.9242C41.0481 62.0321 41.6718 64.1639 42.4455 65.1842C42.709 65.5313 43.2826 65.1702 43.0158 64.816Z" fill="#727272"/>
<path d="M41.8185 67.5473C40.5178 67.0004 38.8203 68.217 39.0204 69.7527C39.2071 71.2078 41.4383 71.7477 42.4422 70.9273C42.7757 70.6538 42.4322 70.0507 42.0953 70.3277C41.5484 70.7765 40.1876 70.6573 39.7874 69.9876C39.2005 69.0164 40.6312 67.7928 41.4983 68.1609C41.8885 68.3257 42.2154 67.7156 41.8185 67.5473Z" fill="#727272"/>
</g>
<defs>
<clipPath id="clip0_38202_51">
<rect width="44" height="50.759" fill="white" transform="translate(24)"/>
</clipPath>
<clipPath id="clip1_38202_51">
<rect width="83" height="41.4359" fill="white" transform="translate(0 46.6155)"/>
</clipPath>
</defs>
</svg>
